<svg xmlns="http://www.w3.org/2000/svg" width="1100" height="490" viewBox="0 0 1100 490">
  <defs>
    <style>text { font-family: Tahoma, 'Segoe UI', 'Helvetica Neue', sans-serif; }</style>
  </defs>

  <!-- Outer frame -->
  <rect width="1100" height="490" rx="8" fill="#141925" stroke="#222b3a" stroke-width="1"/>

  <!-- Title bar -->
  <text x="32" y="38" font-size="20" font-weight="bold" fill="#e6edf6">🛡️ Danger Index</text>
  <text x="32" y="57" font-size="13" fill="#9aa7ba">130+ rules · 14 weighted categories · score 0–1000 (0 = hardened, 1000 = critical)</text>
  <line x1="32" y1="68" x2="1068" y2="68" stroke="#222b3a" stroke-width="1"/>

  <!-- ══ LEFT GAUGE PANEL: x=32 y=76 w=240 h=400 ══ -->
  <rect x="32" y="76" width="240" height="400" rx="8" fill="#1b2230" stroke="#222b3a" stroke-width="1"/>

  <!--
    Arc gauge: cx=152, cy=228, r=88
    Left endpoint  = (cx-r, cy) = (64, 228)
    Right endpoint = (cx+r, cy) = (240, 228)
    Distance = 2r = 176 → exact semicircle, no degenerate arc

    Background arc: M 64 228 A 88 88 0 0 1 240 228
      sweep=1 (clockwise in SVG = goes UP from left to right) → top half ✓

    Score arc endpoint for 23/1000:
      endAngle = π × (1 − 23/1000) = π × 0.977 = 3.0693 rad
      ex = 152 + 88 × cos(3.0693) = 152 + 88×(−0.9973) = 152 − 87.76 ≈ 64.2
      ey = 228 − 88 × sin(3.0693) = 228 − 88×0.0725 = 228 − 6.4 ≈ 221.6
      (minus because SVG y increases downward)
  -->

  <!-- Arc track (empty) -->
  <path d="M 64 228 A 88 88 0 0 1 240 228"
        fill="none" stroke="#2a3550" stroke-width="18" stroke-linecap="round"/>

  <!-- Arc fill: 23/1000 = 2.3% — tiny green sliver at left end with visible rounded cap -->
  <path d="M 64 228 A 88 88 0 0 1 64.2 221.6"
        fill="none" stroke="#3fb950" stroke-width="18" stroke-linecap="round"/>

  <!-- Gauge text -->
  <text x="152" y="256" text-anchor="middle" font-size="9" fill="#9aa7ba" letter-spacing="0.09em">DANGER INDEX</text>
  <text x="152" y="279" text-anchor="middle" font-size="24" font-weight="bold" fill="#3fb950">23 / 1000</text>
  <text x="152" y="298" text-anchor="middle" font-size="11" font-weight="700" fill="#3fb950" letter-spacing="0.07em">HARDENED</text>

  <!-- Divider inside panel -->
  <line x1="52" y1="312" x2="252" y2="312" stroke="#222b3a" stroke-width="1"/>

  <!-- Band legend -->
  <text x="52" y="328" font-size="9" fill="#5d6b80" letter-spacing="0.07em">RISK BANDS</text>
  <rect x="52" y="336" width="10" height="10" rx="2" fill="#3fb950"/>
  <text x="68" y="346" font-size="10" fill="#9aa7ba">0 – 199 · Hardened ◀</text>
  <rect x="52" y="354" width="10" height="10" rx="2" fill="#d29922"/>
  <text x="68" y="364" font-size="10" fill="#9aa7ba">200 – 499 · Minor exposure</text>
  <rect x="52" y="372" width="10" height="10" rx="2" fill="#f0883e"/>
  <text x="68" y="382" font-size="10" fill="#9aa7ba">500 – 799 · Elevated risk</text>
  <rect x="52" y="390" width="10" height="10" rx="2" fill="#f85149"/>
  <text x="68" y="400" font-size="10" fill="#9aa7ba">800 – 1000 · Critical</text>

  <text x="152" y="436" text-anchor="middle" font-size="10" fill="#5d6b80">24 rules triggered · 130+ checks ran</text>
  <text x="152" y="452" text-anchor="middle" font-size="10" font-weight="600" fill="#3fb950">✓ Kubernetes is Hardened</text>

  <!-- ══ RIGHT PANEL: category rows ══
       num badge  x=282 w=18 h=18
       name       x=308
       bar track  x=560 w=360 → ends x=920
       score %    text-anchor=end x=938
       weight     text-anchor=end x=1068
  -->

  <!-- Column headers -->
  <text x="308" y="90" font-size="9" fill="#5d6b80" letter-spacing="0.07em">CATEGORY</text>
  <text x="740" y="90" text-anchor="middle" font-size="9" fill="#5d6b80" letter-spacing="0.07em">RISK SCORE (% of category max)</text>
  <text x="1068" y="90" text-anchor="end" font-size="9" fill="#5d6b80" letter-spacing="0.07em">WEIGHT</text>
  <line x1="282" y1="95" x2="1068" y2="95" stroke="#222b3a" stroke-width="1"/>

  <!-- Row template: y_top = 98 + i*24, bar_y = y_top+10, text_y = y_top+14, row step=24 -->

  <!-- 1 · 🗄️ Insecure Data Storage W130 – hardcoded_credentials 22 findings → ~12% -->
  <rect x="282" y="100" width="18" height="18" rx="3" fill="#f8514922"/>
  <text x="291" y="113" text-anchor="middle" font-size="9" font-weight="bold" fill="#f85149">1</text>
  <text x="308" y="113" font-size="12" fill="#e6edf6">🗄️ Insecure Data Storage</text>
  <rect x="560" y="105" width="360" height="6" rx="3" fill="#2a3550"/>
  <rect x="560" y="105" width="43" height="6" rx="3" fill="#f85149"/>
  <text x="955" y="113" text-anchor="end" font-size="10" font-weight="600" fill="#f85149">12%</text>
  <text x="1068" y="113" text-anchor="end" font-size="10" fill="#9aa7ba">W 130</text>

  <!-- 2 · 💥 Crash & Stability W120 – no findings -->
  <rect x="282" y="124" width="18" height="18" rx="3" fill="#5d6b8018"/>
  <text x="291" y="137" text-anchor="middle" font-size="9" font-weight="bold" fill="#5d6b80">2</text>
  <text x="308" y="137" font-size="12" fill="#5d6b80">💥 Crash &amp; Stability</text>
  <rect x="560" y="129" width="360" height="6" rx="3" fill="#2a3550"/>
  <text x="950" y="137" text-anchor="end" font-size="10" fill="#5d6b80">—</text>
  <text x="1068" y="137" text-anchor="end" font-size="10" fill="#5d6b80">W 120</text>

  <!-- 3 · 🔐 Cryptography W110 – insecure_tls 15 + tls_no_minversion 4 → ~8% -->
  <rect x="282" y="148" width="18" height="18" rx="3" fill="#d2992222"/>
  <text x="291" y="161" text-anchor="middle" font-size="9" font-weight="bold" fill="#d29922">3</text>
  <text x="308" y="161" font-size="12" fill="#e6edf6">🔐 Cryptography Issues</text>
  <rect x="560" y="153" width="360" height="6" rx="3" fill="#2a3550"/>
  <rect x="560" y="153" width="29" height="6" rx="3" fill="#d29922"/>
  <text x="950" y="161" text-anchor="end" font-size="10" font-weight="600" fill="#d29922">8%</text>
  <text x="1068" y="161" text-anchor="end" font-size="10" fill="#9aa7ba">W 110</text>

  <!-- 4 · 🪪 Auth & Authorization W100 – no findings -->
  <rect x="282" y="172" width="18" height="18" rx="3" fill="#5d6b8018"/>
  <text x="291" y="185" text-anchor="middle" font-size="9" font-weight="bold" fill="#5d6b80">4</text>
  <text x="308" y="185" font-size="12" fill="#5d6b80">🪪 Auth &amp; Authorization</text>
  <rect x="560" y="177" width="360" height="6" rx="3" fill="#2a3550"/>
  <text x="950" y="185" text-anchor="end" font-size="10" fill="#5d6b80">—</text>
  <text x="1068" y="185" text-anchor="end" font-size="10" fill="#5d6b80">W 100</text>

  <!-- 5 · 🌐 Network Security W90 – http_server_no_tls 8 → ~6% -->
  <rect x="282" y="196" width="18" height="18" rx="3" fill="#d2992222"/>
  <text x="291" y="209" text-anchor="middle" font-size="9" font-weight="bold" fill="#d29922">5</text>
  <text x="308" y="209" font-size="12" fill="#e6edf6">🌐 Network Security</text>
  <rect x="560" y="201" width="360" height="6" rx="3" fill="#2a3550"/>
  <rect x="560" y="201" width="22" height="6" rx="3" fill="#d29922"/>
  <text x="950" y="209" text-anchor="end" font-size="10" font-weight="600" fill="#d29922">6%</text>
  <text x="1068" y="209" text-anchor="end" font-size="10" fill="#9aa7ba">W 90</text>

  <!-- 6 · 🧠 Memory Corruption W80 – no findings -->
  <rect x="282" y="220" width="18" height="18" rx="3" fill="#5d6b8018"/>
  <text x="291" y="233" text-anchor="middle" font-size="9" font-weight="bold" fill="#5d6b80">6</text>
  <text x="308" y="233" font-size="12" fill="#5d6b80">🧠 Memory Corruption</text>
  <rect x="560" y="225" width="360" height="6" rx="3" fill="#2a3550"/>
  <text x="950" y="233" text-anchor="end" font-size="10" fill="#5d6b80">—</text>
  <text x="1068" y="233" text-anchor="end" font-size="10" fill="#5d6b80">W 80</text>

  <!-- 7 · ⌨️ I/O Validation W80 – command_injection 6 → ~7% -->
  <rect x="282" y="244" width="18" height="18" rx="3" fill="#d2992222"/>
  <text x="291" y="257" text-anchor="middle" font-size="9" font-weight="bold" fill="#d29922">7</text>
  <text x="308" y="257" font-size="12" fill="#e6edf6">⌨️ I/O Validation</text>
  <rect x="560" y="249" width="360" height="6" rx="3" fill="#2a3550"/>
  <rect x="560" y="249" width="25" height="6" rx="3" fill="#d29922"/>
  <text x="950" y="257" text-anchor="end" font-size="10" font-weight="600" fill="#d29922">7%</text>
  <text x="1068" y="257" text-anchor="end" font-size="10" fill="#9aa7ba">W 80</text>

  <!-- 8 · 🧨 Unsafe & Deprecated W60 – no findings -->
  <rect x="282" y="268" width="18" height="18" rx="3" fill="#5d6b8018"/>
  <text x="291" y="281" text-anchor="middle" font-size="9" font-weight="bold" fill="#5d6b80">8</text>
  <text x="308" y="281" font-size="12" fill="#5d6b80">🧨 Unsafe &amp; Deprecated</text>
  <rect x="560" y="273" width="360" height="6" rx="3" fill="#2a3550"/>
  <text x="950" y="281" text-anchor="end" font-size="10" fill="#5d6b80">—</text>
  <text x="1068" y="281" text-anchor="end" font-size="10" fill="#5d6b80">W 60</text>

  <!-- 9 · 💉 Injection Attacks W50 – go.command_injection → ~4% -->
  <rect x="282" y="292" width="18" height="18" rx="3" fill="#f0883e22"/>
  <text x="291" y="305" text-anchor="middle" font-size="9" font-weight="bold" fill="#f0883e">9</text>
  <text x="308" y="305" font-size="12" fill="#e6edf6">💉 Injection Attacks</text>
  <rect x="560" y="297" width="360" height="6" rx="3" fill="#2a3550"/>
  <rect x="560" y="297" width="14" height="6" rx="3" fill="#f0883e"/>
  <text x="950" y="305" text-anchor="end" font-size="10" font-weight="600" fill="#f0883e">4%</text>
  <text x="1068" y="305" text-anchor="end" font-size="10" fill="#9aa7ba">W 50</text>

  <!-- 10 · 📋 Sensitive Data Exposure W50 – no findings -->
  <rect x="282" y="316" width="18" height="18" rx="3" fill="#5d6b8018"/>
  <text x="291" y="329" text-anchor="middle" font-size="9" font-weight="bold" fill="#5d6b80">10</text>
  <text x="308" y="329" font-size="12" fill="#5d6b80">📋 Sensitive Data Exposure</text>
  <rect x="560" y="321" width="360" height="6" rx="3" fill="#2a3550"/>
  <text x="950" y="329" text-anchor="end" font-size="10" fill="#5d6b80">—</text>
  <text x="1068" y="329" text-anchor="end" font-size="10" fill="#5d6b80">W 50</text>

  <!-- 11 · 🛡️ Binary Protections W40 – no findings -->
  <rect x="282" y="340" width="18" height="18" rx="3" fill="#5d6b8018"/>
  <text x="291" y="353" text-anchor="middle" font-size="9" font-weight="bold" fill="#5d6b80">11</text>
  <text x="308" y="353" font-size="12" fill="#5d6b80">🛡️ Binary Protections</text>
  <rect x="560" y="345" width="360" height="6" rx="3" fill="#2a3550"/>
  <text x="950" y="353" text-anchor="end" font-size="10" fill="#5d6b80">—</text>
  <text x="1068" y="353" text-anchor="end" font-size="10" fill="#5d6b80">W 40</text>

  <!-- 12 · ⚙️ Platform Config W40 – no findings -->
  <rect x="282" y="364" width="18" height="18" rx="3" fill="#5d6b8018"/>
  <text x="291" y="377" text-anchor="middle" font-size="9" font-weight="bold" fill="#5d6b80">12</text>
  <text x="308" y="377" font-size="12" fill="#5d6b80">⚙️ Platform Config</text>
  <rect x="560" y="369" width="360" height="6" rx="3" fill="#2a3550"/>
  <text x="950" y="377" text-anchor="end" font-size="10" fill="#5d6b80">—</text>
  <text x="1068" y="377" text-anchor="end" font-size="10" fill="#5d6b80">W 40</text>

  <!-- 13 · 🔐 Session & Access W30 – no findings -->
  <rect x="282" y="388" width="18" height="18" rx="3" fill="#5d6b8018"/>
  <text x="291" y="401" text-anchor="middle" font-size="9" font-weight="bold" fill="#5d6b80">13</text>
  <text x="308" y="401" font-size="12" fill="#5d6b80">🔐 Session &amp; Access</text>
  <rect x="560" y="393" width="360" height="6" rx="3" fill="#2a3550"/>
  <text x="950" y="401" text-anchor="end" font-size="10" fill="#5d6b80">—</text>
  <text x="1068" y="401" text-anchor="end" font-size="10" fill="#5d6b80">W 30</text>

  <!-- 14 · 🔩 Unsafe Exec & Deser W20 – python.eval_exec 1 → ~2% -->
  <rect x="282" y="412" width="18" height="18" rx="3" fill="#f0883e22"/>
  <text x="291" y="425" text-anchor="middle" font-size="9" font-weight="bold" fill="#f0883e">14</text>
  <text x="308" y="425" font-size="12" fill="#e6edf6">🔩 Unsafe Exec &amp; Deser</text>
  <rect x="560" y="417" width="360" height="6" rx="3" fill="#2a3550"/>
  <rect x="560" y="417" width="7" height="6" rx="3" fill="#f0883e"/>
  <text x="950" y="425" text-anchor="end" font-size="10" font-weight="600" fill="#f0883e">2%</text>
  <text x="1068" y="425" text-anchor="end" font-size="10" fill="#9aa7ba">W 20</text>
</svg>
