<svg xmlns="http://www.w3.org/2000/svg" width="1100" height="540" viewBox="0 0 1100 540">
  <defs>
    <style>
      text { font-family: Tahoma, 'Segoe UI', 'Helvetica Neue', sans-serif; }
    </style>
  </defs>
  <!-- Outer frame -->
  <rect width="1100" height="540" rx="8" fill="#141925" stroke="#222b3a" stroke-width="1"/>

  <!-- Title -->
  <text x="32" y="42" font-size="20" font-weight="bold" fill="#e6edf6">&#x1F4A1; Module Insights</text>
  <text x="32" y="62" font-size="13" fill="#9aa7ba">Dependency analysis · penetration · todos · microservice topology</text>

  <!-- Separator -->
  <line x1="32" y1="76" x2="1068" y2="76" stroke="#222b3a" stroke-width="1"/>

  <!-- Sub-section 1: DEPENDENCY HOTSPOTS -->
  <text x="32" y="97" font-size="11" fill="#4ea1ff" letter-spacing="0.06em">&#x1F578;&#xFE0F; DEPENDENCY HOTSPOTS</text>

  <!-- Table header -->
  <text x="48" y="114" font-size="10" fill="#5d6b80" letter-spacing="0.04em">MODULE</text>
  <text x="340" y="114" font-size="10" fill="#5d6b80" letter-spacing="0.04em">USES</text>
  <text x="480" y="114" font-size="10" fill="#5d6b80" letter-spacing="0.04em">LINES</text>
  <text x="680" y="114" font-size="10" fill="#5d6b80" letter-spacing="0.04em">DECL</text>
  <text x="850" y="114" font-size="10" fill="#5d6b80" letter-spacing="0.04em">FILES</text>

  <!-- Row: instrumentation -->
  <rect x="32" y="120" width="1036" height="22" rx="4" fill="#1b2230"/>
  <text x="48" y="135" font-size="12" fill="#e6edf6">instrumentation</text>
  <rect x="330" y="124" width="36" height="14" rx="4" fill="#3fb950" opacity="0.2"/>
  <text x="348" y="135" text-anchor="middle" font-size="11" font-weight="bold" fill="#3fb950">1</text>
  <text x="480" y="135" font-size="11" fill="#9aa7ba">3 329</text>
  <text x="680" y="135" font-size="11" fill="#9aa7ba">76</text>
  <text x="850" y="135" font-size="11" fill="#9aa7ba">13</text>

  <!-- Row: kubernetes -->
  <text x="48" y="157" font-size="12" fill="#e6edf6">kubernetes</text>
  <rect x="330" y="146" width="36" height="14" rx="4" fill="#5d6b80" opacity="0.3"/>
  <text x="348" y="157" text-anchor="middle" font-size="11" fill="#9aa7ba">0</text>
  <text x="480" y="157" font-size="11" fill="#9aa7ba">3 597 277</text>
  <text x="680" y="157" font-size="11" fill="#9aa7ba">121 822</text>
  <text x="850" y="157" font-size="11" fill="#9aa7ba">12 776</text>

  <!-- Row: golangci-lint -->
  <rect x="32" y="162" width="1036" height="22" rx="4" fill="#1b2230"/>
  <text x="48" y="177" font-size="12" fill="#e6edf6">golangci-lint</text>
  <rect x="330" y="166" width="36" height="14" rx="4" fill="#5d6b80" opacity="0.3"/>
  <text x="348" y="177" text-anchor="middle" font-size="11" fill="#9aa7ba">0</text>
  <text x="480" y="177" font-size="11" fill="#9aa7ba">1 314</text>
  <text x="680" y="177" font-size="11" fill="#9aa7ba">39</text>
  <text x="850" y="177" font-size="11" fill="#9aa7ba">6</text>

  <!-- Row: tools -->
  <text x="48" y="197" font-size="12" fill="#e6edf6">tools</text>
  <rect x="330" y="186" width="36" height="14" rx="4" fill="#5d6b80" opacity="0.3"/>
  <text x="348" y="197" text-anchor="middle" font-size="11" fill="#9aa7ba">0</text>
  <text x="480" y="197" font-size="11" fill="#9aa7ba">240</text>
  <text x="680" y="197" font-size="11" fill="#9aa7ba">8</text>
  <text x="850" y="197" font-size="11" fill="#9aa7ba">1</text>

  <!-- Divider -->
  <line x1="32" y1="210" x2="1068" y2="210" stroke="#222b3a" stroke-width="1"/>

  <!-- Sub-section 2: MICROSERVICES -->
  <text x="32" y="230" font-size="11" fill="#4ea1ff" letter-spacing="0.06em">&#x1F527; MICROSERVICES (4)</text>

  <!-- 2x2 pill grid -->
  <!-- kubernetes -->
  <rect x="32" y="238" width="240" height="58" rx="8" fill="#1b2230" stroke="#222b3a" stroke-width="1"/>
  <text x="52" y="258" font-size="13" font-weight="bold" fill="#e6edf6">kubernetes</text>
  <rect x="52" y="263" width="60" height="14" rx="4" fill="#0d1929" stroke="#27466b" stroke-width="1"/>
  <text x="82" y="274" text-anchor="middle" font-size="9" fill="#4ea1ff">Go module</text>
  <text x="52" y="289" font-size="10" fill="#9aa7ba">12 776 files · 3 597 277 loc</text>

  <!-- instrumentation -->
  <rect x="284" y="238" width="240" height="58" rx="8" fill="#1b2230" stroke="#222b3a" stroke-width="1"/>
  <text x="304" y="258" font-size="13" font-weight="bold" fill="#e6edf6">instrumentation</text>
  <rect x="304" y="263" width="60" height="14" rx="4" fill="#0d1929" stroke="#27466b" stroke-width="1"/>
  <text x="334" y="274" text-anchor="middle" font-size="9" fill="#4ea1ff">Go module</text>
  <text x="304" y="289" font-size="10" fill="#9aa7ba">13 files · 3 329 loc</text>

  <!-- golangci-lint -->
  <rect x="536" y="238" width="240" height="58" rx="8" fill="#1b2230" stroke="#222b3a" stroke-width="1"/>
  <text x="556" y="258" font-size="13" font-weight="bold" fill="#e6edf6">golangci-lint</text>
  <rect x="556" y="263" width="60" height="14" rx="4" fill="#0d1929" stroke="#27466b" stroke-width="1"/>
  <text x="586" y="274" text-anchor="middle" font-size="9" fill="#4ea1ff">Go module</text>
  <text x="556" y="289" font-size="10" fill="#9aa7ba">6 files · 1 314 loc</text>

  <!-- tools -->
  <rect x="788" y="238" width="280" height="58" rx="8" fill="#1b2230" stroke="#222b3a" stroke-width="1"/>
  <text x="808" y="258" font-size="13" font-weight="bold" fill="#e6edf6">tools</text>
  <rect x="808" y="263" width="60" height="14" rx="4" fill="#0d1929" stroke="#27466b" stroke-width="1"/>
  <text x="838" y="274" text-anchor="middle" font-size="9" fill="#4ea1ff">Go module</text>
  <text x="808" y="289" font-size="10" fill="#9aa7ba">1 file · 240 loc</text>

  <!-- Divider -->
  <line x1="32" y1="308" x2="1068" y2="308" stroke="#222b3a" stroke-width="1"/>

  <!-- Sub-section 3: MODULE PENETRATION -->
  <text x="32" y="328" font-size="11" fill="#4ea1ff" letter-spacing="0.06em">&#x1F517; MODULE PENETRATION</text>

  <!-- Table header -->
  <text x="48" y="345" font-size="10" fill="#5d6b80" letter-spacing="0.04em">MODULE</text>
  <text x="340" y="345" font-size="10" fill="#5d6b80" letter-spacing="0.04em">DEPENDENTS</text>
  <text x="560" y="345" font-size="10" fill="#5d6b80" letter-spacing="0.04em">USED BY</text>

  <!-- tools row -->
  <rect x="32" y="350" width="1036" height="22" rx="4" fill="#1b2230"/>
  <text x="48" y="365" font-size="12" fill="#e6edf6">tools</text>
  <text x="340" y="365" font-size="12" font-weight="bold" fill="#3fb950">3</text>
  <text x="560" y="365" font-size="11" fill="#9aa7ba">golangci-lint · instrumentation · kubernetes</text>

  <!-- kubernetes row -->
  <text x="48" y="385" font-size="12" fill="#e6edf6">kubernetes</text>
  <text x="340" y="385" font-size="12" font-weight="bold" fill="#4ea1ff">2</text>
  <text x="560" y="385" font-size="11" fill="#9aa7ba">golangci-lint · instrumentation</text>

  <!-- instrumentation row -->
  <rect x="32" y="390" width="1036" height="22" rx="4" fill="#1b2230"/>
  <text x="48" y="405" font-size="12" fill="#e6edf6">instrumentation</text>
  <text x="340" y="405" font-size="12" font-weight="bold" fill="#9aa7ba">1</text>
  <text x="560" y="405" font-size="11" fill="#9aa7ba">kubernetes</text>

  <!-- Divider -->
  <line x1="32" y1="422" x2="1068" y2="422" stroke="#222b3a" stroke-width="1"/>

  <!-- Sub-section 4: TODOs &amp; FIXMEs -->
  <text x="32" y="442" font-size="11" fill="#4ea1ff" letter-spacing="0.06em">&#x1F4DD; TODOs &amp; FIXMEs</text>

  <!-- Table header -->
  <text x="48" y="459" font-size="10" fill="#5d6b80" letter-spacing="0.04em">MODULE</text>
  <text x="340" y="459" font-size="10" fill="#5d6b80" letter-spacing="0.04em">TODO</text>
  <text x="480" y="459" font-size="10" fill="#5d6b80" letter-spacing="0.04em">FIXME</text>

  <!-- kubernetes row -->
  <rect x="32" y="464" width="1036" height="22" rx="4" fill="#1b2230"/>
  <text x="48" y="479" font-size="12" fill="#e6edf6">kubernetes</text>
  <text x="340" y="479" font-size="12" font-weight="bold" fill="#d29922">2 302</text>
  <text x="480" y="479" font-size="12" font-weight="bold" fill="#f0883e">49</text>

  <!-- instrumentation row -->
  <text x="48" y="499" font-size="12" fill="#e6edf6">instrumentation</text>
  <text x="340" y="499" font-size="12" font-weight="bold" fill="#9aa7ba">1</text>
  <text x="480" y="499" font-size="12" font-weight="bold" fill="#3fb950">0</text>

  <!-- golangci-lint row -->
  <rect x="32" y="504" width="1036" height="22" rx="4" fill="#1b2230"/>
  <text x="48" y="519" font-size="12" fill="#e6edf6">golangci-lint</text>
  <text x="340" y="519" font-size="12" font-weight="bold" fill="#9aa7ba">—</text>
  <text x="480" y="519" font-size="12" font-weight="bold" fill="#3fb950">—</text>
</svg>
