<svg xmlns="http://www.w3.org/2000/svg" width="1100" height="440" viewBox="0 0 1100 440">
  <defs>
    <style>text { font-family: Tahoma, 'Segoe UI', 'Helvetica Neue', sans-serif; }</style>
  </defs>

  <!-- Outer frame -->
  <rect width="1100" height="440" rx="8" fill="#141925" stroke="#222b3a" stroke-width="1"/>

  <!-- Title row -->
  <text x="32" y="42" font-size="20" font-weight="bold" fill="#e6edf6">🏛️🔭 ArchScope · kubernetes</text>
  <text x="32" y="60" font-size="13" fill="#9aa7ba">Go · Python · 4 modules · Jun 2026</text>
  <line x1="32" y1="72" x2="1068" y2="72" stroke="#222b3a" stroke-width="1"/>

  <!-- ══ 6 STAT CARDS y=84 h=76 ══ -->
  <!-- LOC -->
  <rect x="32" y="84" width="160" height="76" rx="8" fill="#1b2230" stroke="#222b3a" stroke-width="1"/>
  <text x="112" y="124" text-anchor="middle" font-size="22" font-weight="bold" fill="#e6edf6">3 598 104</text>
  <text x="112" y="143" text-anchor="middle" font-size="10" fill="#9aa7ba" letter-spacing="0.04em">LINES OF CODE</text>

  <!-- Files -->
  <rect x="204" y="84" width="140" height="76" rx="8" fill="#1b2230" stroke="#222b3a" stroke-width="1"/>
  <text x="274" y="124" text-anchor="middle" font-size="22" font-weight="bold" fill="#e6edf6">12 783</text>
  <text x="274" y="143" text-anchor="middle" font-size="10" fill="#9aa7ba" letter-spacing="0.04em">FILES</text>

  <!-- Declarations -->
  <rect x="356" y="84" width="170" height="76" rx="8" fill="#1b2230" stroke="#222b3a" stroke-width="1"/>
  <text x="441" y="124" text-anchor="middle" font-size="22" font-weight="bold" fill="#e6edf6">121 852</text>
  <text x="441" y="143" text-anchor="middle" font-size="10" fill="#9aa7ba" letter-spacing="0.04em">DECLARATIONS</text>

  <!-- Modules -->
  <rect x="538" y="84" width="120" height="76" rx="8" fill="#1b2230" stroke="#222b3a" stroke-width="1"/>
  <text x="598" y="124" text-anchor="middle" font-size="22" font-weight="bold" fill="#e6edf6">4</text>
  <text x="598" y="143" text-anchor="middle" font-size="10" fill="#9aa7ba" letter-spacing="0.04em">MODULES</text>

  <!-- Danger rate -->
  <rect x="670" y="84" width="160" height="76" rx="8" fill="#0d1929" stroke="#27466b" stroke-width="1"/>
  <text x="750" y="122" text-anchor="middle" font-size="22" font-weight="bold" fill="#4ea1ff">2.3%</text>
  <text x="750" y="141" text-anchor="middle" font-size="10" fill="#4ea1ff" letter-spacing="0.04em">DANGER RATE</text>

  <!-- Platforms -->
  <rect x="842" y="84" width="226" height="76" rx="8" fill="#1b2230" stroke="#222b3a" stroke-width="1"/>
  <text x="955" y="124" text-anchor="middle" font-size="22" font-weight="bold" fill="#e6edf6">2</text>
  <text x="955" y="143" text-anchor="middle" font-size="10" fill="#9aa7ba" letter-spacing="0.04em">PLATFORMS</text>

  <line x1="32" y1="172" x2="1068" y2="172" stroke="#222b3a" stroke-width="1"/>

  <!-- ══ TECH STACK — 2 rows, evenly distributed full width ══
       Row 1 gap=40:  Go(28) Python(56) Cobra CLI(80) Docker(56) Gorilla(64) JWT(36)
                      Kubernetes Client(136) Logrus(56) NumPy(50) OpenTelemetry(106)
       Row 2 gap=35:  Prometheus(84) Protocol Buffers(128) PyTorch(64) Testify(64)
                      Zap Logger(82) etcd(42) gRPC(42) gRPC Gateway(96) net/http(70) slog(42)
  -->
  <text x="32" y="190" font-size="10" font-weight="600" fill="#9aa7ba" letter-spacing="0.07em">TECH STACK</text>

  <!-- Row 1 — y=200 h=20 -->
  <!-- Go (lang) x=32 w=28 -->
  <rect x="32"  y="200" width="28"  height="20" rx="5" fill="#061420" stroke="#00acd7" stroke-width="1"/>
  <text x="46"  y="214" text-anchor="middle" font-size="11" fill="#00acd7">Go</text>
  <!-- Python (lang) x=100 w=56 -->
  <rect x="100" y="200" width="56"  height="20" rx="5" fill="#060e1a" stroke="#3776ab" stroke-width="1"/>
  <text x="128" y="214" text-anchor="middle" font-size="11" fill="#3776ab">Python</text>
  <!-- Cobra CLI x=196 w=80 -->
  <rect x="196" y="200" width="80"  height="20" rx="5" fill="#1b2230" stroke="#324056" stroke-width="1"/>
  <text x="236" y="214" text-anchor="middle" font-size="11" fill="#9aa7ba">Cobra CLI</text>
  <!-- Docker x=316 w=56 -->
  <rect x="316" y="200" width="56"  height="20" rx="5" fill="#1b2230" stroke="#324056" stroke-width="1"/>
  <text x="344" y="214" text-anchor="middle" font-size="11" fill="#9aa7ba">Docker</text>
  <!-- Gorilla x=412 w=64 -->
  <rect x="412" y="200" width="64"  height="20" rx="5" fill="#1b2230" stroke="#324056" stroke-width="1"/>
  <text x="444" y="214" text-anchor="middle" font-size="11" fill="#9aa7ba">Gorilla</text>
  <!-- JWT x=516 w=36 -->
  <rect x="516" y="200" width="36"  height="20" rx="5" fill="#1b2230" stroke="#324056" stroke-width="1"/>
  <text x="534" y="214" text-anchor="middle" font-size="11" fill="#9aa7ba">JWT</text>
  <!-- Kubernetes Client x=592 w=136 -->
  <rect x="592" y="200" width="136" height="20" rx="5" fill="#1b2230" stroke="#324056" stroke-width="1"/>
  <text x="660" y="214" text-anchor="middle" font-size="11" fill="#9aa7ba">Kubernetes Client</text>
  <!-- Logrus x=768 w=56 -->
  <rect x="768" y="200" width="56"  height="20" rx="5" fill="#1b2230" stroke="#324056" stroke-width="1"/>
  <text x="796" y="214" text-anchor="middle" font-size="11" fill="#9aa7ba">Logrus</text>
  <!-- NumPy x=864 w=50 -->
  <rect x="864" y="200" width="50"  height="20" rx="5" fill="#1b2230" stroke="#324056" stroke-width="1"/>
  <text x="889" y="214" text-anchor="middle" font-size="11" fill="#9aa7ba">NumPy</text>
  <!-- OpenTelemetry x=954 w=106 -->
  <rect x="954" y="200" width="106" height="20" rx="5" fill="#1b2230" stroke="#324056" stroke-width="1"/>
  <text x="1007" y="214" text-anchor="middle" font-size="11" fill="#9aa7ba">OpenTelemetry</text>

  <!-- Row 2 — y=228 h=20 -->
  <!-- Prometheus x=32 w=84 -->
  <rect x="32"  y="228" width="84"  height="20" rx="5" fill="#1b2230" stroke="#324056" stroke-width="1"/>
  <text x="74"  y="242" text-anchor="middle" font-size="11" fill="#9aa7ba">Prometheus</text>
  <!-- Protocol Buffers x=151 w=128 -->
  <rect x="151" y="228" width="128" height="20" rx="5" fill="#1b2230" stroke="#324056" stroke-width="1"/>
  <text x="215" y="242" text-anchor="middle" font-size="11" fill="#9aa7ba">Protocol Buffers</text>
  <!-- PyTorch x=314 w=64 -->
  <rect x="314" y="228" width="64"  height="20" rx="5" fill="#1b2230" stroke="#324056" stroke-width="1"/>
  <text x="346" y="242" text-anchor="middle" font-size="11" fill="#9aa7ba">PyTorch</text>
  <!-- Testify x=413 w=64 -->
  <rect x="413" y="228" width="64"  height="20" rx="5" fill="#1b2230" stroke="#324056" stroke-width="1"/>
  <text x="445" y="242" text-anchor="middle" font-size="11" fill="#9aa7ba">Testify</text>
  <!-- Zap Logger x=512 w=82 -->
  <rect x="512" y="228" width="82"  height="20" rx="5" fill="#1b2230" stroke="#324056" stroke-width="1"/>
  <text x="553" y="242" text-anchor="middle" font-size="11" fill="#9aa7ba">Zap Logger</text>
  <!-- etcd x=629 w=42 -->
  <rect x="629" y="228" width="42"  height="20" rx="5" fill="#1b2230" stroke="#324056" stroke-width="1"/>
  <text x="650" y="242" text-anchor="middle" font-size="11" fill="#9aa7ba">etcd</text>
  <!-- gRPC x=706 w=42 -->
  <rect x="706" y="228" width="42"  height="20" rx="5" fill="#1b2230" stroke="#324056" stroke-width="1"/>
  <text x="727" y="242" text-anchor="middle" font-size="11" fill="#9aa7ba">gRPC</text>
  <!-- gRPC Gateway x=783 w=96 -->
  <rect x="783" y="228" width="96"  height="20" rx="5" fill="#1b2230" stroke="#324056" stroke-width="1"/>
  <text x="831" y="242" text-anchor="middle" font-size="11" fill="#9aa7ba">gRPC Gateway</text>
  <!-- net/http x=914 w=70 -->
  <rect x="914" y="228" width="70"  height="20" rx="5" fill="#1b2230" stroke="#324056" stroke-width="1"/>
  <text x="949" y="242" text-anchor="middle" font-size="11" fill="#9aa7ba">net/http</text>
  <!-- slog x=1019 w=42 -->
  <rect x="1019" y="228" width="42"  height="20" rx="5" fill="#1b2230" stroke="#324056" stroke-width="1"/>
  <text x="1040" y="242" text-anchor="middle" font-size="11" fill="#9aa7ba">slog</text>

  <line x1="32" y1="260" x2="1068" y2="260" stroke="#222b3a" stroke-width="1"/>

  <!-- ══ PACKAGES & MODULES — 4 cards across full width ══
       4 × 250px cards + 3 × 12px gaps = 1000+36=1036 = content width
       x positions: 32, 294, 556, 818  right edges: 282, 544, 806, 1068
  -->
  <text x="32"  y="278" font-size="10" font-weight="600" fill="#9aa7ba" letter-spacing="0.07em">PACKAGES &amp; MODULES</text>
  <text x="198" y="278" font-size="10" fill="#5d6b80">(4)</text>

  <!-- Card 1: kubernetes x=32 w=250 h=72 -->
  <rect x="32"  y="286" width="250" height="72" rx="8" fill="#1b2230" stroke="#222b3a" stroke-width="1"/>
  <text x="48"  y="306" font-size="13" font-weight="bold" fill="#e6edf6" font-family="Menlo,'Consolas',monospace">📦 kubernetes</text>
  <!-- Go badge -->
  <rect x="48"  y="313" width="30" height="15" rx="4" fill="rgba(0,172,215,0.15)" stroke="#00acd7" stroke-width="0.5"/>
  <text x="63"  y="323" text-anchor="middle" font-size="9" font-weight="700" fill="#00acd7">Go</text>
  <!-- Python badge -->
  <rect x="84"  y="313" width="44" height="15" rx="4" fill="rgba(55,118,171,0.15)" stroke="#3776ab" stroke-width="0.5"/>
  <text x="106" y="323" text-anchor="middle" font-size="9" font-weight="700" fill="#3776ab">Python</text>
  <!-- LOC right-aligned -->
  <text x="270" y="323" text-anchor="end" font-size="10" fill="#5d6b80" font-family="Menlo,'Consolas',monospace">3 598 104 loc</text>
  <text x="48"  y="346" font-size="10" fill="#5d6b80">12 776 files · 121 822 decl</text>

  <!-- Card 2: instrumentation x=294 w=250 h=72 -->
  <rect x="294" y="286" width="250" height="72" rx="8" fill="#1b2230" stroke="#222b3a" stroke-width="1"/>
  <text x="310" y="306" font-size="13" font-weight="bold" fill="#e6edf6" font-family="Menlo,'Consolas',monospace">📦 instrumentation</text>
  <rect x="310" y="313" width="30" height="15" rx="4" fill="rgba(0,172,215,0.15)" stroke="#00acd7" stroke-width="0.5"/>
  <text x="325" y="323" text-anchor="middle" font-size="9" font-weight="700" fill="#00acd7">Go</text>
  <text x="532" y="323" text-anchor="end" font-size="10" fill="#5d6b80" font-family="Menlo,'Consolas',monospace">3 329 loc</text>
  <text x="310" y="346" font-size="10" fill="#5d6b80">13 files · 76 decl</text>

  <!-- Card 3: golangci-lint x=556 w=250 h=72 -->
  <rect x="556" y="286" width="250" height="72" rx="8" fill="#1b2230" stroke="#222b3a" stroke-width="1"/>
  <text x="572" y="306" font-size="13" font-weight="bold" fill="#e6edf6" font-family="Menlo,'Consolas',monospace">📦 golangci-lint</text>
  <rect x="572" y="313" width="30" height="15" rx="4" fill="rgba(0,172,215,0.15)" stroke="#00acd7" stroke-width="0.5"/>
  <text x="587" y="323" text-anchor="middle" font-size="9" font-weight="700" fill="#00acd7">Go</text>
  <text x="794" y="323" text-anchor="end" font-size="10" fill="#5d6b80" font-family="Menlo,'Consolas',monospace">1 314 loc</text>
  <text x="572" y="346" font-size="10" fill="#5d6b80">6 files · 39 decl</text>

  <!-- Card 4: tools x=818 w=250 h=72 -->
  <rect x="818" y="286" width="250" height="72" rx="8" fill="#1b2230" stroke="#222b3a" stroke-width="1"/>
  <text x="834" y="306" font-size="13" font-weight="bold" fill="#e6edf6" font-family="Menlo,'Consolas',monospace">📦 tools</text>
  <rect x="834" y="313" width="30" height="15" rx="4" fill="rgba(0,172,215,0.15)" stroke="#00acd7" stroke-width="0.5"/>
  <text x="849" y="323" text-anchor="middle" font-size="9" font-weight="700" fill="#00acd7">Go</text>
  <text x="1056" y="323" text-anchor="end" font-size="10" fill="#5d6b80" font-family="Menlo,'Consolas',monospace">240 loc</text>
  <text x="834" y="346" font-size="10" fill="#5d6b80">1 file · 8 decl</text>

  <line x1="32" y1="370" x2="1068" y2="370" stroke="#222b3a" stroke-width="1"/>

  <!-- ══ DEVOPS ══ -->
  <text x="32" y="388" font-size="10" font-weight="600" fill="#9aa7ba" letter-spacing="0.07em">DEVOPS</text>

  <!-- Docker chip -->
  <rect x="32"  y="396" width="80" height="26" rx="6" fill="#1b2230" stroke="#222b3a" stroke-width="1"/>
  <text x="50"  y="413" font-size="13">🐳</text>
  <text x="68"  y="413" font-size="12" fill="#e6edf6">Docker</text>

  <!-- Kubernetes chip -->
  <rect x="122" y="396" width="102" height="26" rx="6" fill="#1b2230" stroke="#222b3a" stroke-width="1"/>
  <text x="140" y="413" font-size="13">☸️</text>
  <text x="158" y="413" font-size="12" fill="#e6edf6">Kubernetes</text>

</svg>
